<svg width="188" height="49" viewBox="0 0 188 49" fill="none" xmlns="http://www.w3.org/2000/svg">
<path d="M0.5 4.15381C0.5 1.94467 2.29086 0.153809 4.5 0.153809H183.5C185.709 0.153809 187.5 1.94467 187.5 4.15381V44.1538C187.5 46.3629 185.709 48.1538 183.5 48.1538H4.5C2.29086 48.1538 0.5 46.3629 0.5 44.1538V4.15381Z" fill="#414141"/>
<path d="M22.6735 31.1538V17.3356H27.8553C28.9168 17.3356 29.8075 17.5335 30.5272 17.9294C31.2514 18.3252 31.7979 18.8695 32.1667 19.5622C32.5401 20.2504 32.7267 21.0331 32.7267 21.9102C32.7267 22.7963 32.5401 23.5835 32.1667 24.2717C31.7934 24.9599 31.2424 25.5019 30.5137 25.8978C29.785 26.2891 28.8876 26.4848 27.8216 26.4848H24.3873V24.4269H27.4842C28.1049 24.4269 28.6132 24.3189 29.0091 24.103C29.4049 23.8871 29.6973 23.5902 29.8862 23.2124C30.0796 22.8346 30.1763 22.4005 30.1763 21.9102C30.1763 21.4199 30.0796 20.9881 29.8862 20.6147C29.6973 20.2414 29.4026 19.9513 29.0023 19.7444C28.6065 19.533 28.0959 19.4272 27.4707 19.4272H25.1767V31.1538H22.6735ZM37.5898 31.363C36.933 31.363 36.3415 31.246 35.8153 31.0121C35.2935 30.7737 34.8796 30.4229 34.5738 29.9596C34.2724 29.4963 34.1217 28.925 34.1217 28.2458C34.1217 27.661 34.2297 27.1775 34.4456 26.7951C34.6615 26.4128 34.9561 26.1069 35.3295 25.8775C35.7028 25.6481 36.1234 25.4749 36.5912 25.358C37.0635 25.2365 37.5515 25.1488 38.0553 25.0949C38.6626 25.0319 39.1551 24.9757 39.5329 24.9262C39.9108 24.8722 40.1852 24.7912 40.3561 24.6833C40.5315 24.5708 40.6192 24.3977 40.6192 24.1638V24.1233C40.6192 23.615 40.4685 23.2214 40.1672 22.9425C39.8658 22.6636 39.4317 22.5242 38.865 22.5242C38.2667 22.5242 37.7922 22.6546 37.4413 22.9155C37.095 23.1764 36.8611 23.4845 36.7396 23.8399L34.4591 23.516C34.639 22.8863 34.9359 22.36 35.3497 21.9372C35.7635 21.5099 36.2696 21.1905 36.8678 20.9791C37.4661 20.7632 38.1273 20.6552 38.8515 20.6552C39.3508 20.6552 39.8478 20.7137 40.3426 20.8307C40.8374 20.9476 41.2894 21.141 41.6988 21.4109C42.1081 21.6763 42.4365 22.0384 42.6839 22.4972C42.9358 22.956 43.0617 23.5295 43.0617 24.2177V31.1538H40.7137V29.7302H40.6327C40.4843 30.018 40.2751 30.2879 40.0052 30.5398C39.7398 30.7872 39.4047 30.9874 38.9999 31.1403C38.5996 31.2888 38.1295 31.363 37.5898 31.363ZM38.224 29.5682C38.7143 29.5682 39.1394 29.4715 39.4992 29.2781C39.859 29.0802 40.1357 28.8193 40.3291 28.4954C40.527 28.1716 40.626 27.8185 40.626 27.4361V26.2149C40.5495 26.2779 40.4191 26.3363 40.2346 26.3903C40.0547 26.4443 39.8523 26.4915 39.6274 26.532C39.4025 26.5725 39.1798 26.6085 38.9594 26.64C38.739 26.6714 38.5479 26.6984 38.3859 26.7209C38.0216 26.7704 37.6955 26.8514 37.4076 26.9638C37.1197 27.0763 36.8925 27.2337 36.7261 27.4361C36.5597 27.634 36.4765 27.8904 36.4765 28.2053C36.4765 28.6551 36.6407 28.9947 36.969 29.2241C37.2974 29.4535 37.7157 29.5682 38.224 29.5682ZM46.6647 35.0402C46.3318 35.0402 46.0237 35.0132 45.7403 34.9592C45.4614 34.9097 45.2388 34.8513 45.0724 34.7838L45.6391 32.8811C45.9945 32.9845 46.3116 33.034 46.5905 33.0295C46.8693 33.025 47.1145 32.9373 47.3259 32.7664C47.5418 32.5999 47.724 32.3211 47.8724 31.9297L48.0816 31.3697L44.3234 20.7902H46.9143L49.3028 28.6169H49.4108L51.806 20.7902H54.4037L50.2542 32.4088C50.0608 32.9575 49.8044 33.4276 49.485 33.8189C49.1656 34.2148 48.7743 34.5161 48.311 34.7231C47.8522 34.9345 47.3034 35.0402 46.6647 35.0402ZM62.9456 31.1538L60.0173 20.7902H62.507L64.3287 28.0771H64.4232L66.2854 20.7902H68.7481L70.6104 28.0366H70.7116L72.5063 20.7902H75.0028L72.0677 31.1538H69.5241L67.5809 24.1503H67.4392L65.496 31.1538H62.9456ZM76.7081 31.1538V20.7902H79.1506V31.1538H76.7081ZM77.9361 19.3193C77.5492 19.3193 77.2164 19.1911 76.9375 18.9347C76.6586 18.6738 76.5192 18.3612 76.5192 17.9968C76.5192 17.628 76.6586 17.3154 76.9375 17.059C77.2164 16.7981 77.5492 16.6677 77.9361 16.6677C78.3274 16.6677 78.6603 16.7981 78.9347 17.059C79.2135 17.3154 79.353 17.628 79.353 17.9968C79.353 18.3612 79.2135 18.6738 78.9347 18.9347C78.6603 19.1911 78.3274 19.3193 77.9361 19.3193ZM86.8373 20.7902V22.6794H80.8795V20.7902H86.8373ZM82.3504 18.3072H84.7929V28.0366C84.7929 28.365 84.8424 28.6169 84.9413 28.7923C85.0448 28.9632 85.1797 29.0802 85.3461 29.1432C85.5126 29.2061 85.697 29.2376 85.8994 29.2376C86.0523 29.2376 86.1918 29.2264 86.3177 29.2039C86.4482 29.1814 86.5471 29.1611 86.6146 29.1432L87.0262 31.0526C86.8957 31.0976 86.7091 31.1471 86.4662 31.201C86.2278 31.255 85.9354 31.2865 85.589 31.2955C84.9773 31.3135 84.4263 31.2213 83.936 31.0189C83.4457 30.812 83.0566 30.4926 82.7687 30.0608C82.4854 29.629 82.3459 29.0892 82.3504 28.4415V18.3072ZM91.5451 25.0814V31.1538H89.1026V17.3356H91.4911V22.5512H91.6126C91.8555 21.9664 92.2311 21.5054 92.7393 21.168C93.2521 20.8262 93.9044 20.6552 94.696 20.6552C95.4157 20.6552 96.0432 20.8059 96.5785 21.1073C97.1138 21.4087 97.5276 21.8495 97.82 22.4297C98.1168 23.01 98.2653 23.7184 98.2653 24.5551V31.1538H95.8228V24.9329C95.8228 24.2357 95.6429 23.6937 95.283 23.3069C94.9277 22.9155 94.4284 22.7199 93.7852 22.7199C93.3533 22.7199 92.9665 22.8143 92.6246 23.0032C92.2873 23.1877 92.0219 23.4553 91.8285 23.8062C91.6396 24.157 91.5451 24.5821 91.5451 25.0814Z" fill="white"/>
<path d="M161.3 28.5072L157.836 20.9387H154.961L159.909 31.1508L159.82 31.4583C159.696 31.8671 159.434 32.2201 159.08 32.457C158.725 32.694 158.299 32.8003 157.875 32.7577C157.379 32.7531 156.892 32.6217 156.46 32.3758L156 34.5631C156.664 34.8374 157.375 34.9805 158.093 34.9846C160.072 34.9846 161.27 34.2556 162.26 32.108L167.5 20.9387H164.724L161.3 28.5072Z" fill="white"/>
<path d="M136.819 17.333H128.515V31.245H131.237V26.1315H136.819C139.852 26.1315 141.846 24.599 141.846 21.7323C141.846 18.8656 139.852 17.333 136.819 17.333ZM136.67 23.6963H131.227V19.7286H136.67C138.244 19.7286 139.144 20.4477 139.144 21.7124C139.144 22.9772 138.244 23.6963 136.67 23.6963Z" fill="white"/>
<path d="M153.225 28.6064V24.4154C153.225 21.9356 151.448 20.651 148.4 20.651C145.926 20.651 143.759 21.8066 143.15 23.5822L145.387 24.3757C145.718 23.488 146.871 22.8333 148.306 22.8333C150.008 22.8333 150.726 23.5276 150.726 24.3757V24.6485L146.678 25.0949C144.347 25.3429 142.813 26.3894 142.813 28.2592C142.813 30.3076 144.57 31.4086 146.901 31.4086C148.403 31.4555 149.866 30.923 150.988 29.9207C151.394 30.9126 151.81 31.5773 154.576 31.2251V29.152C153.467 29.4198 153.225 29.152 153.225 28.6064ZM150.751 27.2772C150.751 28.6262 148.865 29.3404 147.287 29.3404C146.084 29.3404 145.362 28.9536 145.362 28.1848C145.362 27.4161 145.956 27.1383 147.104 27.0044L150.761 26.5779L150.751 27.2772Z" fill="white"/>
<path d="M123.368 27.9815C123.387 28.0395 123.387 28.1021 123.368 28.16C123.357 28.2178 123.329 28.2712 123.289 28.3138L120.671 31.0664C120.613 31.1259 120.544 31.1731 120.468 31.2053C120.392 31.2389 120.309 31.2558 120.226 31.2549H107.81C107.752 31.2554 107.696 31.24 107.647 31.2103C107.597 31.1767 107.558 31.1304 107.533 31.0764C107.515 31.0215 107.515 30.9626 107.533 30.9077C107.543 30.8506 107.569 30.7975 107.607 30.754L110.23 28.0013C110.287 27.9419 110.356 27.8947 110.433 27.8625C110.509 27.8285 110.592 27.8115 110.675 27.8129H123.071C123.131 27.8117 123.189 27.829 123.239 27.8625C123.295 27.8855 123.34 27.9277 123.368 27.9815ZM120.676 22.754C120.617 22.6961 120.548 22.6491 120.473 22.6151C120.396 22.5839 120.314 22.5671 120.231 22.5655H107.81C107.752 22.5663 107.695 22.5835 107.646 22.6151C107.597 22.6466 107.558 22.6913 107.533 22.744C107.516 22.7989 107.516 22.8578 107.533 22.9127C107.541 22.9704 107.567 23.0241 107.607 23.0664L110.23 25.824C110.289 25.8819 110.357 25.9289 110.433 25.9629C110.51 25.9945 110.592 26.0114 110.675 26.0125H123.071C123.131 26.0136 123.189 25.9963 123.239 25.9629C123.289 25.9337 123.328 25.8882 123.348 25.8339C123.373 25.7812 123.382 25.7218 123.372 25.6641C123.362 25.6063 123.335 25.553 123.294 25.5116L120.676 22.754ZM107.647 20.7205C107.696 20.7502 107.752 20.7656 107.81 20.7651H120.231C120.314 20.766 120.397 20.7491 120.473 20.7155C120.549 20.6833 120.618 20.6361 120.676 20.5766L123.294 17.824C123.334 17.7814 123.362 17.728 123.373 17.6703C123.39 17.6154 123.39 17.5565 123.373 17.5016C123.352 17.4474 123.314 17.4019 123.264 17.3727C123.214 17.3392 123.155 17.3219 123.096 17.3231H110.655C110.572 17.3217 110.489 17.3387 110.413 17.3727C110.337 17.4049 110.268 17.4521 110.21 17.5115L107.592 20.2741C107.551 20.316 107.523 20.3697 107.513 20.4279C107.496 20.4827 107.496 20.5416 107.513 20.5965C107.545 20.6495 107.591 20.6925 107.647 20.7205Z" fill="url(#paint0_linear_2_978)"/>
<defs>
<linearGradient id="paint0_linear_2_978" x1="108.841" y1="31.587" x2="121.592" y2="16.9282" gradientUnits="userSpaceOnUse">
<stop offset="0.08" stop-color="#9945FF"/>
<stop offset="0.3" stop-color="#8752F3"/>
<stop offset="0.5" stop-color="#5497D5"/>
<stop offset="0.6" stop-color="#43B4CA"/>
<stop offset="0.72" stop-color="#28E0B9"/>
<stop offset="0.97" stop-color="#19FB9B"/>
</linearGradient>
</defs>
</svg>
