<svg width="188" height="49" viewBox="0 0 188 49" fill="none" xmlns="http://www.w3.org/2000/svg">
<path d="M0.5 4.92306C0.5 2.71393 2.29086 0.923065 4.5 0.923065H183.5C185.709 0.923065 187.5 2.71393 187.5 4.92307V44.9231C187.5 47.1322 185.709 48.9231 183.5 48.9231H4.5C2.29086 48.9231 0.5 47.1322 0.5 44.9231V4.92306Z" fill="black"/>
<path d="M22.6735 31.9231V18.1049H27.8553C28.9168 18.1049 29.8075 18.3028 30.5272 18.6986C31.2514 19.0945 31.7979 19.6387 32.1667 20.3314C32.5401 21.0197 32.7267 21.8023 32.7267 22.6795C32.7267 23.5656 32.5401 24.3528 32.1667 25.041C31.7934 25.7292 31.2424 26.2712 30.5137 26.667C29.785 27.0584 28.8876 27.254 27.8216 27.254H24.3873V25.1961H27.4842C28.1049 25.1961 28.6132 25.0882 29.0091 24.8723C29.4049 24.6564 29.6973 24.3595 29.8862 23.9817C30.0796 23.6038 30.1763 23.1698 30.1763 22.6795C30.1763 22.1892 30.0796 21.7573 29.8862 21.384C29.6973 21.0107 29.4026 20.7205 29.0023 20.5136C28.6065 20.3022 28.0959 20.1965 27.4707 20.1965H25.1767V31.9231H22.6735ZM37.5898 32.1322C36.933 32.1322 36.3415 32.0153 35.8153 31.7814C35.2935 31.543 34.8796 31.1921 34.5738 30.7288C34.2724 30.2655 34.1217 29.6943 34.1217 29.015C34.1217 28.4303 34.2297 27.9467 34.4456 27.5644C34.6615 27.1821 34.9561 26.8762 35.3295 26.6468C35.7028 26.4174 36.1234 26.2442 36.5912 26.1273C37.0635 26.0058 37.5515 25.9181 38.0553 25.8641C38.6626 25.8011 39.1551 25.7449 39.5329 25.6954C39.9108 25.6415 40.1852 25.5605 40.3561 25.4525C40.5315 25.3401 40.6192 25.1669 40.6192 24.933V24.8925C40.6192 24.3842 40.4685 23.9907 40.1672 23.7118C39.8658 23.4329 39.4317 23.2934 38.865 23.2934C38.2667 23.2934 37.7922 23.4239 37.4413 23.6848C37.095 23.9457 36.8611 24.2538 36.7396 24.6091L34.4591 24.2853C34.639 23.6555 34.9359 23.1293 35.3497 22.7064C35.7635 22.2791 36.2696 21.9598 36.8678 21.7483C37.4661 21.5324 38.1273 21.4245 38.8515 21.4245C39.3508 21.4245 39.8478 21.483 40.3426 21.5999C40.8374 21.7169 41.2894 21.9103 41.6988 22.1802C42.1081 22.4456 42.4365 22.8077 42.6839 23.2665C42.9358 23.7253 43.0617 24.2988 43.0617 24.987V31.9231H40.7137V30.4994H40.6327C40.4843 30.7873 40.2751 31.0572 40.0052 31.3091C39.7398 31.5565 39.4047 31.7566 38.9999 31.9096C38.5996 32.058 38.1295 32.1322 37.5898 32.1322ZM38.224 30.3375C38.7143 30.3375 39.1394 30.2408 39.4992 30.0474C39.859 29.8494 40.1357 29.5885 40.3291 29.2647C40.527 28.9408 40.626 28.5877 40.626 28.2054V26.9841C40.5495 27.0471 40.4191 27.1056 40.2346 27.1596C40.0547 27.2135 39.8523 27.2608 39.6274 27.3013C39.4025 27.3417 39.1798 27.3777 38.9594 27.4092C38.739 27.4407 38.5479 27.4677 38.3859 27.4902C38.0216 27.5397 37.6955 27.6206 37.4076 27.7331C37.1197 27.8455 36.8925 28.003 36.7261 28.2054C36.5597 28.4033 36.4765 28.6597 36.4765 28.9746C36.4765 29.4244 36.6407 29.764 36.969 29.9934C37.2974 30.2228 37.7157 30.3375 38.224 30.3375ZM46.6647 35.8094C46.3318 35.8094 46.0237 35.7824 45.7403 35.7285C45.4614 35.679 45.2388 35.6205 45.0724 35.553L45.6391 33.6503C45.9945 33.7538 46.3116 33.8033 46.5905 33.7988C46.8693 33.7943 47.1145 33.7066 47.3259 33.5356C47.5418 33.3692 47.724 33.0903 47.8724 32.699L48.0816 32.139L44.3234 21.5594H46.9143L49.3028 29.3861H49.4108L51.806 21.5594H54.4037L50.2542 33.178C50.0608 33.7268 49.8044 34.1969 49.485 34.5882C49.1656 34.984 48.7743 35.2854 48.311 35.4923C47.8522 35.7037 47.3034 35.8094 46.6647 35.8094ZM62.9456 31.9231L60.0173 21.5594H62.507L64.3287 28.8464H64.4232L66.2854 21.5594H68.7481L70.6104 28.8059H70.7116L72.5063 21.5594H75.0028L72.0677 31.9231H69.5241L67.5809 24.9195H67.4392L65.496 31.9231H62.9456ZM76.7081 31.9231V21.5594H79.1506V31.9231H76.7081ZM77.9361 20.0885C77.5492 20.0885 77.2164 19.9604 76.9375 19.704C76.6586 19.4431 76.5192 19.1305 76.5192 18.7661C76.5192 18.3973 76.6586 18.0846 76.9375 17.8282C77.2164 17.5674 77.5492 17.4369 77.9361 17.4369C78.3274 17.4369 78.6603 17.5674 78.9347 17.8282C79.2135 18.0846 79.353 18.3973 79.353 18.7661C79.353 19.1305 79.2135 19.4431 78.9347 19.704C78.6603 19.9604 78.3274 20.0885 77.9361 20.0885ZM86.8373 21.5594V23.4486H80.8795V21.5594H86.8373ZM82.3504 19.0765H84.7929V28.8059C84.7929 29.1342 84.8424 29.3861 84.9413 29.5616C85.0448 29.7325 85.1797 29.8494 85.3461 29.9124C85.5126 29.9754 85.697 30.0069 85.8994 30.0069C86.0523 30.0069 86.1918 29.9956 86.3177 29.9731C86.4482 29.9506 86.5471 29.9304 86.6146 29.9124L87.0262 31.8219C86.8957 31.8668 86.7091 31.9163 86.4662 31.9703C86.2278 32.0243 85.9354 32.0558 85.589 32.0648C84.9773 32.0827 84.4263 31.9905 83.936 31.7881C83.4457 31.5812 83.0566 31.2618 82.7687 30.83C82.4854 30.3982 82.3459 29.8584 82.3504 29.2107V19.0765ZM91.5451 25.8506V31.9231H89.1026V18.1049H91.4911V23.3204H91.6126C91.8555 22.7357 92.2311 22.2746 92.7393 21.9373C93.2521 21.5954 93.9044 21.4245 94.696 21.4245C95.4157 21.4245 96.0432 21.5752 96.5785 21.8765C97.1138 22.1779 97.5276 22.6187 97.82 23.199C98.1168 23.7792 98.2653 24.4877 98.2653 25.3243V31.9231H95.8228V25.7022C95.8228 25.005 95.6429 24.463 95.283 24.0761C94.9277 23.6848 94.4284 23.4891 93.7852 23.4891C93.3533 23.4891 92.9665 23.5836 92.6246 23.7725C92.2873 23.9569 92.0219 24.2246 91.8285 24.5754C91.6396 24.9263 91.5451 25.3513 91.5451 25.8506Z" fill="white"/>
<path d="M161.3 29.2765L157.836 21.708H154.961L159.909 31.92L159.82 32.2275C159.696 32.6363 159.434 32.9893 159.08 33.2263C158.725 33.4633 158.299 33.5695 157.875 33.527C157.379 33.5223 156.892 33.3909 156.46 33.1451L156 35.3323C156.664 35.6066 157.375 35.7498 158.093 35.7539C160.072 35.7539 161.27 35.0248 162.26 32.8772L167.5 21.708H164.724L161.3 29.2765Z" fill="white"/>
<path d="M136.819 18.1022H128.515V32.0142H131.237V26.9008H136.819C139.852 26.9008 141.846 25.3682 141.846 22.5015C141.846 19.6348 139.852 18.1022 136.819 18.1022ZM136.67 24.4656H131.227V20.4978H136.67C138.244 20.4978 139.144 21.2169 139.144 22.4817C139.144 23.7464 138.244 24.4656 136.67 24.4656Z" fill="white"/>
<path d="M153.225 29.3757V25.1847C153.225 22.7049 151.448 21.4203 148.4 21.4203C145.926 21.4203 143.759 22.5759 143.15 24.3515L145.387 25.145C145.718 24.2573 146.871 23.6026 148.306 23.6026C150.008 23.6026 150.726 24.2969 150.726 25.145V25.4178L146.678 25.8642C144.347 26.1122 142.813 27.1587 142.813 29.0285C142.813 31.0769 144.57 32.1779 146.901 32.1779C148.403 32.2248 149.866 31.6923 150.988 30.69C151.394 31.682 151.81 32.3466 154.576 31.9944V29.9213C153.467 30.1891 153.225 29.9213 153.225 29.3757ZM150.751 28.0465C150.751 29.3955 148.865 30.1097 147.287 30.1097C146.084 30.1097 145.362 29.7229 145.362 28.9541C145.362 28.1854 145.956 27.9076 147.104 27.7737L150.761 27.3472L150.751 28.0465Z" fill="white"/>
<path d="M123.368 28.7508C123.387 28.8087 123.387 28.8714 123.368 28.9293C123.357 28.9871 123.329 29.0405 123.289 29.0831L120.671 31.8357C120.613 31.8951 120.544 31.9423 120.468 31.9746C120.392 32.0081 120.309 32.025 120.226 32.0242H107.81C107.752 32.0247 107.696 32.0092 107.647 31.9795C107.597 31.946 107.558 31.8997 107.533 31.8456C107.515 31.7908 107.515 31.7318 107.533 31.677C107.543 31.6199 107.569 31.5667 107.607 31.5232L110.23 28.7706C110.287 28.7112 110.356 28.664 110.433 28.6317C110.509 28.5977 110.592 28.5808 110.675 28.5821H123.071C123.131 28.581 123.189 28.5983 123.239 28.6317C123.295 28.6547 123.34 28.697 123.368 28.7508ZM120.676 23.5232C120.617 23.4653 120.548 23.4183 120.473 23.3843C120.396 23.3531 120.314 23.3363 120.231 23.3347H107.81C107.752 23.3356 107.695 23.3528 107.646 23.3843C107.597 23.4159 107.558 23.4606 107.533 23.5133C107.516 23.5682 107.516 23.627 107.533 23.6819C107.541 23.7396 107.567 23.7933 107.607 23.8357L110.23 26.5933C110.289 26.6512 110.357 26.6982 110.433 26.7322C110.51 26.7638 110.592 26.7806 110.675 26.7817H123.071C123.131 26.7829 123.189 26.7656 123.239 26.7322C123.289 26.7029 123.328 26.6574 123.348 26.6032C123.373 26.5504 123.382 26.4911 123.372 26.4333C123.362 26.3756 123.335 26.3223 123.294 26.2808L120.676 23.5232ZM107.647 21.4897C107.696 21.5194 107.752 21.5349 107.81 21.5344H120.231C120.314 21.5352 120.397 21.5183 120.473 21.4848C120.549 21.4525 120.618 21.4053 120.676 21.3459L123.294 18.5933C123.334 18.5507 123.362 18.4973 123.373 18.4395C123.39 18.3846 123.39 18.3258 123.373 18.2709C123.352 18.2167 123.314 18.1711 123.264 18.1419C123.214 18.1085 123.155 18.0912 123.096 18.0923H110.655C110.572 18.091 110.489 18.1079 110.413 18.1419C110.337 18.1742 110.268 18.2214 110.21 18.2808L107.592 21.0434C107.551 21.0853 107.523 21.1389 107.513 21.1971C107.496 21.252 107.496 21.3109 107.513 21.3657C107.545 21.4188 107.591 21.4617 107.647 21.4897V21.4897Z" fill="url(#paint0_linear_2_84)"/>
<defs>
<linearGradient id="paint0_linear_2_84" x1="108.841" y1="32.3562" x2="121.592" y2="17.6974" gradientUnits="userSpaceOnUse">
<stop offset="0.08" stop-color="#9945FF"/>
<stop offset="0.3" stop-color="#8752F3"/>
<stop offset="0.5" stop-color="#5497D5"/>
<stop offset="0.6" stop-color="#43B4CA"/>
<stop offset="0.72" stop-color="#28E0B9"/>
<stop offset="0.97" stop-color="#19FB9B"/>
</linearGradient>
</defs>
</svg>
